<svg xmlns="http://www.w3.org/2000/svg" version="1.1" xmlns:xlink="http://www.w3.org/1999/xlink"
    xmlns:svgjs="http://svgjs.dev/svgjs" width="1500" height="791" viewBox="0 0 1500 791">
    <g transform="matrix(1,0,0,1,-0.9090909090909918,-0.006243521897602022)"><svg viewBox="0 0 396 209"
            data-background-color="#ffffff" preserveAspectRatio="xMidYMid meet" height="791" width="1500"
            xmlns="http://www.w3.org/2000/svg" xmlns:xlink="http://www.w3.org/1999/xlink">
            <g id="tight-bounds" transform="matrix(1,0,0,1,0.2400000000000091,0.0016496789843216675)"><svg
                    viewBox="0 0 395.52 208.99670064203136" height="208.99670064203136" width="395.52">
                    <g><svg viewBox="0 0 395.52 208.99670064203136" height="208.99670064203136" width="395.52">
                            <g transform="matrix(1,0,0,1,0,142.83480558658147)"><svg
                                    viewBox="0 0 395.52 66.16189505544989" height="66.16189505544989" width="395.52">
                                    <g id="textblocktransform"><svg viewBox="0 0 395.52 66.16189505544989"
                                            height="66.16189505544989" width="395.52" id="textblock">
                                            <g><svg viewBox="0 0 395.52 35.684564740307245" height="35.684564740307245"
                                                    width="395.52">
                                                    <g transform="matrix(1,0,0,1,0,0)"><svg width="395.52"
                                                            viewBox="1.95 -36.5 412.56 37" height="35.684564740307245"
                                                            data-palette-color="#4d7e3e">
                                                           
                                                        </svg></g>
                                                </svg></g>
                                           
                                        </svg></g>
                                </svg></g>
                            <g transform="matrix(1,0,0,1,73.78461835118917,0)"><svg
                                    viewBox="0 0 247.95076329762165 134.4105362809487" height="134.4105362809487"
                                    width="247.95076329762165">
                                    <g><svg xmlns="http://www.w3.org/2000/svg"
                                            xmlns:xlink="http://www.w3.org/1999/xlink" version="1.1" x="0" y="0"
                                            viewBox="4.247000000000028 43.14699999999999 91.504 49.60300000000001"
                                            enable-background="new 0 0 100 100" xml:space="preserve"
                                            height="134.4105362809487" width="247.95076329762165" class="icon-icon-0"
                                            data-fill-palette-color="accent" id="icon-0">
                                            <path
                                                d="M66.729 91.031c2.283 0 4.568 0 6.852 0 0.313 0 0.625 0 0.938 0 0.58 0 1.16 0 1.74 0-0.018-0.115-0.035-0.233-0.055-0.355-0.125-0.812-0.258-1.757-0.402-2.852 1.385 0 2.768 0 4.15 0 0-0.287 0-0.573 0-0.859-1.42 0-2.84 0-4.262 0-0.324-2.543-0.703-5.814-1.176-9.997-0.125-1.102-0.229-2.112-0.311-3.03 0.854 0 1.709 0 2.564 0 0-0.286 0-0.572 0-0.858-0.879 0-1.76 0-2.639 0-0.039-0.484-0.072-0.94-0.1-1.366 1.637 0 3.275 0 4.912 0 0-0.286 0-0.572 0-0.858-1.652 0-3.305 0-4.959 0-0.037-0.851-0.045-1.558-0.02-2.122 0.715-3.07 2.553-4.24 6.264-4.24s5.549 1.17 6.264 4.24c0.059 1.3-0.053 3.359-0.332 6.179-1.539 0-3.078 0-4.619 0 0 0.287 0 0.572 0 0.858 1.512 0 3.021 0 4.533 0-0.025 0.23-0.051 0.463-0.076 0.701-0.572 0-1.146 0-1.719 0 0 0.286 0 0.573 0 0.859 0.541 0 1.082 0 1.623 0-0.725 6.396-1.229 10.618-1.648 13.346-0.02 0.122-0.039 0.24-0.057 0.355 3.852 0 7.705 0 11.557 0 0 0.572 0 1.145 0 1.718-30.502 0-61.003 0-91.504 0 0-0.573 0-1.146 0-1.718 1.341 0 2.682 0 4.023 0 0-2.951 0-5.902 0-8.854 1.878-8.047 3.757-16.096 5.635-24.145 7.579-3.688 15.156-7.378 22.735-11.065 3.64 1.771 7.277 3.542 10.916 5.313-0.192 0.195-0.361 0.417-0.499 0.653-0.255 0.438-0.403 0.933-0.483 1.436-0.056 0.354-0.077 0.714-0.081 1.072-0.009 0.658 0.034 1.314 0.103 1.97-0.177-0.114-0.364-0.212-0.56-0.289-0.412-0.163-0.861-0.237-1.302-0.203-0.821 0.063-1.61 0.504-2.058 1.19-0.271 0.418-0.416 0.93-0.412 1.43 0.004 0.539 0.183 1.065 0.451 1.534 0.272 0.084 0.543 0.168 0.815 0.252 0.339 0.03 0.679 0.062 1.019 0.093 0.002 0.001 0.176 0.2 0.488 0.649 0.21 0.304 0.486 0.719 0.851 1.272-0.996 0.354-1.892 0.919-2.58 1.698-0.807 0.91-1.308 2.051-1.605 3.333-0.013 0.051-0.024 0.103-0.036 0.153-0.003 0.054-0.006 0.106-0.007 0.159-0.029 0.642-0.021 1.392 0.02 2.283 0.018 0.291 0.032 0.582 0.048 0.873 0 0.008 0 0.015 0.001 0.021-1.695 0-3.392 0-5.088 0-3.719 0-7.437 0-11.154 0 0 6.391 0 12.779 0 19.169 6.146 0 12.295 0 18.441 0 0.701 0 1.403 0 2.104 0-0.019-0.115-0.037-0.233-0.056-0.355-0.126-0.812-0.259-1.757-0.401-2.852 1.383 0 2.767 0 4.149 0 0-0.287 0-0.573 0-0.859-1.42 0-2.841 0-4.262 0-0.324-2.543-0.703-5.814-1.176-9.997-0.125-1.102-0.229-2.112-0.312-3.03 0.854 0 1.71 0 2.565 0 0-0.286 0-0.572 0-0.858-0.88 0-1.759 0-2.638 0-0.04-0.484-0.073-0.94-0.101-1.366 1.637 0 3.275 0 4.912 0 0-0.286 0-0.572 0-0.858-1.652 0-3.305 0-4.959 0-0.038-0.851-0.045-1.558-0.019-2.122 0.715-3.07 2.553-4.24 6.263-4.24 3.711 0 5.549 1.17 6.264 4.24 0.059 1.3-0.053 3.359-0.332 6.179-1.539 0-3.08 0-4.619 0 0 0.287 0 0.572 0 0.858 1.512 0 3.021 0 4.531 0-0.023 0.23-0.049 0.463-0.074 0.701-0.572 0-1.146 0-1.719 0 0 0.286 0 0.573 0 0.859 0.541 0 1.082 0 1.621 0-0.723 6.396-1.227 10.618-1.648 13.346-0.018 0.122-0.037 0.24-0.055 0.355 0.461 0 0.922 0 1.383 0 0.004-0.022 0.008-0.044 0.012-0.064 0.43-2.79 0.932-7.014 1.656-13.417 0.033-0.287 0.064-0.574 0.098-0.861 0.025-0.241 0.051-0.479 0.076-0.713 0.029-0.288 0.059-0.577 0.088-0.865 0.283-2.858 0.404-4.948 0.34-6.426-0.002-0.053-0.006-0.105-0.008-0.159-0.012-0.051-0.023-0.103-0.035-0.153-0.283-1.208-0.742-2.289-1.471-3.175-0.639-0.773-1.475-1.359-2.41-1.741 0.383-0.582 0.67-1.015 0.887-1.326 0.309-0.447 0.482-0.645 0.484-0.646 0.34-0.03 0.68-0.062 1.02-0.093 0.271-0.083 0.543-0.167 0.814-0.251 0.234-0.409 0.402-0.864 0.441-1.333 0.037-0.441-0.039-0.896-0.223-1.301-0.117-0.253-0.275-0.486-0.467-0.688-0.246-0.259-0.549-0.468-0.877-0.609-0.486-0.211-1.031-0.277-1.555-0.196-0.406 0.063-0.801 0.215-1.15 0.431-0.234 0.146-0.449 0.319-0.648 0.513-0.025-0.028-0.053-0.056-0.078-0.082 0.369-0.441 0.74-0.881 1.111-1.322 0.242-0.287 0.412-0.632 0.508-0.994 0.012-0.048 0.023-0.095 0.033-0.143 1.793 0.873 3.586 1.746 5.379 2.619 1.879 8.048 3.756 16.097 5.635 24.144 0 2.951 0 5.902 0 8.854C65.584 91.031 66.156 91.031 66.729 91.031M19.044 75.728v-3.864h-3.865v3.864H19.044zM19.044 80.452v-3.865h-3.865v3.865H19.044zM23.768 75.728v-3.864h-3.864v3.864H23.768zM23.768 80.452v-3.865h-3.864v3.865H23.768z"
                                                fill="#4d7e3e" data-fill-palette-color="accent"></path>
                                            <path
                                                d="M60.863 56.847c-2.367-1.152-4.734-2.305-7.104-3.457-0.033-0.082-0.07-0.162-0.111-0.241-0.201-0.398-0.475-0.763-0.809-1.061-0.361-0.322-0.791-0.565-1.25-0.712-0.414-0.132-0.848-0.188-1.284-0.181-0.288 0.005-0.577 0.035-0.857 0.096-4.271-2.078-8.539-4.156-12.809-6.234-8.075 3.93-16.148 7.86-24.223 11.789-1.955 8.379-3.91 16.756-5.865 25.134-0.573-0.065-1.145-0.132-1.717-0.196 2.031-8.707 4.063-17.415 6.095-26.123 8.571-4.172 17.141-8.343 25.71-12.514 8.57 4.171 17.141 8.343 25.709 12.514 2.031 8.708 4.064 17.416 6.098 26.123-0.574 0.064-1.148 0.131-1.721 0.196C64.771 73.602 62.818 65.225 60.863 56.847"
                                                fill="#4d7e3e" data-fill-palette-color="accent"></path>
                                            <path
                                                d="M43.298 86.413c-5.425 0-10.851 0-16.275 0 0-0.286 0-0.573 0-0.859 5.39 0 10.779 0 16.171 0C43.228 85.849 43.264 86.135 43.298 86.413"
                                                fill="#4d7e3e" data-fill-palette-color="accent"></path>
                                            <path
                                                d="M43.656 89.151c-5.545 0-11.09 0-16.634 0 0-0.286 0-0.572 0-0.858 5.506 0 11.012 0 16.518 0C43.579 88.59 43.617 88.876 43.656 89.151"
                                                fill="#4d7e3e" data-fill-palette-color="accent"></path>
                                            <path
                                                d="M42.966 83.675c-5.313 0-10.629 0-15.943 0 0-0.286 0-0.573 0-0.859 5.28 0 10.562 0 15.842 0C42.9 83.108 42.933 83.395 42.966 83.675"
                                                fill="#4d7e3e" data-fill-palette-color="accent"></path>
                                            <path
                                                d="M42.333 78.198c-5.104 0-10.207 0-15.312 0 0-0.287 0-0.573 0-0.859 5.071 0 10.144 0 15.214 0C42.269 77.63 42.302 77.916 42.333 78.198"
                                                fill="#4d7e3e" data-fill-palette-color="accent"></path>
                                            <path
                                                d="M42.034 75.46c-5.004 0-10.007 0-15.012 0 0-0.287 0-0.573 0-0.859 4.976 0 9.951 0 14.927 0C41.975 74.879 42.003 75.166 42.034 75.46"
                                                fill="#4d7e3e" data-fill-palette-color="accent"></path>
                                            <path
                                                d="M42.647 80.937c-5.208 0-10.417 0-15.624 0 0-0.287 0-0.572 0-0.858 5.176 0 10.351 0 15.525 0C42.583 80.37 42.616 80.656 42.647 80.937"
                                                fill="#4d7e3e" data-fill-palette-color="accent"></path>
                                            <path
                                                d="M47.931 63.33c-1.854-2.852-2.095-3.151-2.483-3.329-0.379-0.174-0.903-0.231-1.22 0.257-0.321-0.563-0.25-0.919-0.088-1.168s0.412-0.39 0.742-0.415c0.33-0.024 0.74 0.069 1.188 0.53 0.486 0.503 1.019 1.444 2.508 4.046C48.364 63.277 48.146 63.304 47.931 63.33"
                                                fill="#4d7e3e" data-fill-palette-color="accent"></path>
                                            <path
                                                d="M51.063 63.223c1.506-2.631 2.039-3.578 2.529-4.084 0.449-0.462 0.857-0.555 1.188-0.53s0.582 0.166 0.742 0.414c0.162 0.249 0.234 0.605-0.088 1.169-0.316-0.487-0.84-0.432-1.219-0.258-0.391 0.179-0.631 0.48-2.496 3.35C51.5 63.263 51.281 63.243 51.063 63.223"
                                                fill="#4d7e3e" data-fill-palette-color="accent"></path>
                                            <path
                                                d="M82.295 63.33c-0.215-0.026-0.43-0.053-0.646-0.079 1.488-2.602 2.021-3.543 2.51-4.046 0.447-0.461 0.855-0.555 1.186-0.53 0.33 0.025 0.582 0.166 0.744 0.415 0.16 0.249 0.234 0.604-0.09 1.168-0.316-0.488-0.838-0.431-1.219-0.257C84.391 60.179 84.15 60.479 82.295 63.33"
                                                fill="#4d7e3e" data-fill-palette-color="accent"></path>
                                            <path
                                                d="M79.166 63.223c-0.219 0.021-0.439 0.04-0.658 0.061-1.865-2.869-2.105-3.171-2.494-3.35-0.381-0.174-0.904-0.229-1.221 0.258-0.322-0.563-0.25-0.92-0.088-1.169 0.162-0.248 0.412-0.39 0.742-0.414s0.74 0.068 1.188 0.53C77.125 59.645 77.66 60.592 79.166 63.223"
                                                fill="#4d7e3e" data-fill-palette-color="accent"></path>
                                            <path
                                                d="M80.004 63.172c-0.92-3.929-1.178-6.007-1.205-7.357-0.025-1.33 0.172-1.954 0.559-2.346s0.961-0.552 1.459-0.581c0.496-0.03 0.918 0.072 1.26 0.292 0.34 0.221 0.598 0.562 0.742 0.988 0.143 0.427 0.17 0.941-0.09 1.25-0.395-0.337-0.781-0.39-1.1-0.295-0.32 0.094-0.572 0.335-0.656 1.535 0 2.17 0 4.339 0 6.509C80.648 63.169 80.326 63.17 80.004 63.172"
                                                fill="#4d7e3e" data-fill-palette-color="accent"></path>
                                            <path
                                                d="M49.416 63.2c-0.918-3.93-1.177-6.008-1.203-7.357-0.026-1.33 0.172-1.954 0.558-2.346 0.387-0.393 0.959-0.553 1.458-0.581 0.498-0.029 0.918 0.071 1.26 0.292 0.34 0.221 0.6 0.56 0.742 0.987 0.145 0.428 0.17 0.942-0.088 1.249-0.395-0.336-0.783-0.388-1.102-0.294-0.319 0.095-0.571 0.335-0.656 1.535 0 2.169 0 4.339 0 6.509C50.062 63.197 49.74 63.199 49.416 63.2"
                                                fill="#4d7e3e" data-fill-palette-color="accent"></path>
                                        </svg></g>
                                </svg></g>
                            <g></g>
                        </svg></g>
                    <defs></defs>
                </svg>
                <rect width="395.52" height="208.99670064203136" fill="none" stroke="none" visibility="hidden"></rect>
            </g>
        </svg></g>
</svg>