<svg xmlns="http://www.w3.org/2000/svg" version="1.1" xmlns:xlink="http://www.w3.org/1999/xlink" xmlns:svgjs="http://svgjs.dev/svgjs" width="1500" height="1500" viewBox="0 0 1500 1500"><rect width="1500" height="1500" fill="#ffffff"></rect><g transform="matrix(0.6666666666666666,0,0,0.6666666666666666,249.39393939393938,486.3291709854017)"><svg viewBox="0 0 396 209" data-background-color="#ffffff" preserveAspectRatio="xMidYMid meet" height="791" width="1500" xmlns="http://www.w3.org/2000/svg" xmlns:xlink="http://www.w3.org/1999/xlink"><g id="tight-bounds" transform="matrix(1,0,0,1,0.2400000000000091,0.0016496789843216675)"><svg viewBox="0 0 395.52 208.99670064203136" height="208.99670064203136" width="395.52"><g><svg viewBox="0 0 395.52 208.99670064203136" height="208.99670064203136" width="395.52"><g transform="matrix(1,0,0,1,0,142.83480558658147)"><svg viewBox="0 0 395.52 66.16189505544989" height="66.16189505544989" width="395.52"><g id="textblocktransform"><svg viewBox="0 0 395.52 66.16189505544989" height="66.16189505544989" width="395.52" id="textblock"><g><svg viewBox="0 0 395.52 35.684564740307245" height="35.684564740307245" width="395.52"><g transform="matrix(1,0,0,1,0,0)"><svg width="395.52" viewBox="1.95 -36.5 412.56 37" height="35.684564740307245" data-palette-color="#4d7e3e"><g class="wordmark-text-0" data-fill-palette-color="primary" id="text-0"><path d="M18.5 0.25L18.5 0.25Q15 0.25 11.98-1.28 8.95-2.8 6.7-5.38 4.45-7.95 3.2-11.18 1.95-14.4 1.95-17.85L1.95-17.85Q1.95-21.45 3.2-24.68 4.45-27.9 6.68-30.4 8.9-32.9 11.93-34.33 14.95-35.75 18.5-35.75L18.5-35.75Q23.65-35.75 27-33.6 30.35-31.45 32.05-28L32.05-28 28.6-25.6Q27.05-28.7 24.35-30.2 21.65-31.7 18.4-31.7L18.4-31.7Q15.7-31.7 13.5-30.55 11.3-29.4 9.73-27.43 8.15-25.45 7.33-22.95 6.5-20.45 6.5-17.75L6.5-17.75Q6.5-14.9 7.43-12.38 8.35-9.85 10.05-7.93 11.75-6 14-4.9 16.25-3.8 18.85-3.8L18.85-3.8Q21.9-3.8 24.65-5.35 27.4-6.9 29.85-10.1L29.85-10.1 29.85-5.45Q25.05 0.25 18.5 0.25ZM29.3 0L29.3-14.3 21.65-14.3 21.65-17.7 33.1-17.7 33.1 0 29.3 0ZM53.05-26.25L53.05-22.25Q49.75-22.2 47.22-20.58 44.7-18.95 43.65-16.1L43.65-16.1 43.65 0 39.25 0 39.25-26.1 43.35-26.1 43.35-20.05Q44.7-22.75 46.92-24.43 49.15-26.1 51.6-26.3L51.6-26.3Q52.1-26.3 52.45-26.3 52.8-26.3 53.05-26.25L53.05-26.25ZM68.8 0.5L68.8 0.5Q65.85 0.5 63.45-0.58 61.05-1.65 59.3-3.53 57.55-5.4 56.6-7.85 55.65-10.3 55.65-13L55.65-13Q55.65-15.75 56.6-18.2 57.55-20.65 59.3-22.53 61.05-24.4 63.47-25.48 65.9-26.55 68.85-26.55L68.85-26.55Q71.75-26.55 74.15-25.48 76.55-24.4 78.32-22.53 80.1-20.65 81.05-18.2 82-15.75 82-13L82-13Q82-10.3 81.05-7.85 80.1-5.4 78.35-3.53 76.6-1.65 74.17-0.58 71.75 0.5 68.8 0.5ZM60.15-12.95L60.15-12.95Q60.15-10.25 61.32-8.05 62.5-5.85 64.45-4.58 66.4-3.3 68.8-3.3L68.8-3.3Q71.2-3.3 73.17-4.6 75.15-5.9 76.32-8.13 77.5-10.35 77.5-13.05L77.5-13.05Q77.5-15.75 76.32-17.95 75.15-20.15 73.17-21.45 71.2-22.75 68.8-22.75L68.8-22.75Q66.4-22.75 64.45-21.43 62.5-20.1 61.32-17.9 60.15-15.7 60.15-12.95ZM111.09-4.35L120.04-26.1 124.29-26.1 113.19 0 109.34 0 104.29-12.3 99.29 0 95.44 0 84.34-26.1 88.54-26.1 97.54-4.35 101.74-15.05 97.34-26.05 101.19-26.05 104.29-17.75 107.39-26.05 111.24-26.05 106.89-15.05 111.09-4.35Z" fill="#000000" data-fill-palette-color="primary"></path><path d="M145.69 0L141.19 0 141.19-35.5 156.39-35.5Q158.74-35.5 160.69-34.52 162.64-33.55 164.09-31.93 165.54-30.3 166.34-28.28 167.14-26.25 167.14-24.15L167.14-24.15Q167.14-21.7 166.21-19.5 165.29-17.3 163.61-15.75 161.94-14.2 159.69-13.6L159.69-13.6 168.29 0 163.19 0 155.09-12.75 145.69-12.75 145.69 0ZM145.69-31.5L145.69-16.75 156.44-16.75Q158.29-16.75 159.66-17.78 161.04-18.8 161.81-20.5 162.59-22.2 162.59-24.15L162.59-24.15Q162.59-26.15 161.69-27.83 160.79-29.5 159.34-30.5 157.89-31.5 156.14-31.5L156.14-31.5 145.69-31.5ZM173.09-10.45L173.09-10.45 173.09-26.1 177.49-26.1 177.49-11.3Q177.49-7.3 178.89-5.3 180.29-3.3 183.04-3.3L183.04-3.3Q184.84-3.3 186.51-4.08 188.19-4.85 189.54-6.3 190.88-7.75 191.63-9.75L191.63-9.75 191.63-26.1 196.04-26.1 196.04-5Q196.04-4.2 196.36-3.83 196.69-3.45 197.44-3.4L197.44-3.4 197.44 0Q196.69 0.1 196.26 0.13 195.84 0.15 195.44 0.15L195.44 0.15Q194.19 0.15 193.29-0.63 192.38-1.4 192.34-2.55L192.34-2.55 192.24-5.6Q190.54-2.7 187.66-1.1 184.79 0.5 181.39 0.5L181.39 0.5Q177.29 0.5 175.19-2.27 173.09-5.05 173.09-10.45ZM226.03-15.6L226.03 0 221.63 0 221.63-14.6Q221.63-18.75 220.36-20.68 219.08-22.6 216.48-22.6L216.48-22.6Q214.68-22.6 212.91-21.7 211.13-20.8 209.76-19.28 208.38-17.75 207.78-15.75L207.78-15.75 207.78 0 203.38 0 203.38-26.1 207.38-26.1 207.38-20.5Q208.43-22.35 210.08-23.7 211.73-25.05 213.83-25.8 215.93-26.55 218.23-26.55L218.23-26.55Q220.48-26.55 222.01-25.73 223.53-24.9 224.41-23.43 225.28-21.95 225.66-19.95 226.03-17.95 226.03-15.6L226.03-15.6Z" fill="#000000" data-fill-palette-color="secondary"></path><path d="M239.18 0L253.73-35.5 257.53-35.5 272.03 0 267.23 0 263.03-10.4 248.13-10.4 243.98 0 239.18 0ZM249.03-13.9L262.03-13.9 255.63-30.3 249.03-13.9ZM289.88-26.25L289.88-22.25Q286.58-22.2 284.05-20.58 281.53-18.95 280.48-16.1L280.48-16.1 280.48 0 276.08 0 276.08-26.1 280.18-26.1 280.18-20.05Q281.53-22.75 283.75-24.43 285.98-26.1 288.43-26.3L288.43-26.3Q288.93-26.3 289.28-26.3 289.63-26.3 289.88-26.25L289.88-26.25ZM305.77 0.5L305.77 0.5Q302.82 0.5 300.4-0.58 297.97-1.65 296.2-3.55 294.42-5.45 293.45-7.9 292.47-10.35 292.47-13.1L292.47-13.1Q292.47-16.8 294.12-19.85 295.77-22.9 298.77-24.73 301.77-26.55 305.72-26.55L305.72-26.55Q309.57-26.55 312.45-24.83 315.32-23.1 316.72-20.2L316.72-20.2 312.42-18.85Q311.42-20.7 309.62-21.73 307.82-22.75 305.62-22.75L305.62-22.75Q303.22-22.75 301.25-21.5 299.27-20.25 298.12-18.07 296.97-15.9 296.97-13.1L296.97-13.1Q296.97-10.35 298.15-8.13 299.32-5.9 301.3-4.6 303.27-3.3 305.67-3.3L305.67-3.3Q307.22-3.3 308.65-3.85 310.07-4.4 311.15-5.33 312.22-6.25 312.62-7.35L312.62-7.35 316.92-6.05Q316.12-4.15 314.5-2.68 312.87-1.2 310.65-0.35 308.42 0.5 305.77 0.5ZM344.57-15.6L344.57 0 340.17 0 340.17-14.6Q340.17-18.6 338.75-20.6 337.32-22.6 334.67-22.6L334.67-22.6Q332.97-22.6 331.25-21.7 329.52-20.8 328.22-19.28 326.92-17.75 326.32-15.75L326.32-15.75 326.32 0 321.92 0 321.92-36.5 326.32-36.5 326.32-20.5Q327.87-23.3 330.55-24.93 333.22-26.55 336.32-26.55L336.32-26.55Q338.67-26.55 340.25-25.73 341.82-24.9 342.77-23.4 343.72-21.9 344.15-19.93 344.57-17.95 344.57-15.6L344.57-15.6ZM355.82 0L351.42 0 351.42-26.1 355.82-26.1 355.82 0ZM355.82-31L351.42-31 351.42-36.5 355.82-36.5 355.82-31ZM375.22 0L370.42 0 360.17-26.1 364.77-26.1 372.97-4.2 381.17-26.1 385.47-26.1 375.22 0ZM401.41 0.5L401.41 0.5Q398.46 0.5 396.04-0.58 393.61-1.65 391.84-3.53 390.06-5.4 389.09-7.85 388.11-10.3 388.11-13.05L388.11-13.05Q388.11-16.75 389.81-19.8 391.51-22.85 394.54-24.7 397.56-26.55 401.46-26.55L401.46-26.55Q405.41-26.55 408.34-24.68 411.26-22.8 412.89-19.78 414.51-16.75 414.51-13.25L414.51-13.25Q414.51-12.75 414.49-12.28 414.46-11.8 414.41-11.55L414.41-11.55 392.76-11.55Q392.96-9 394.19-7.03 395.41-5.05 397.36-3.93 399.31-2.8 401.56-2.8L401.56-2.8Q403.96-2.8 406.09-4 408.21-5.2 409.01-7.15L409.01-7.15 412.81-6.1Q411.96-4.2 410.29-2.7 408.61-1.2 406.34-0.35 404.06 0.5 401.41 0.5ZM392.61-14.6L392.61-14.6 410.41-14.6Q410.21-17.15 408.96-19.1 407.71-21.05 405.76-22.15 403.81-23.25 401.46-23.25L401.46-23.25Q399.16-23.25 397.21-22.15 395.26-21.05 394.04-19.1 392.81-17.15 392.61-14.6Z" fill="#000000" data-fill-palette-color="primary"></path></g></svg></g></svg></g><g transform="matrix(1,0,0,1,0,44.108834045940014)"><svg viewBox="0 0 395.52 22.05306100950988" height="22.05306100950988" width="395.52"><g transform="matrix(1,0,0,1,0,0)"><svg width="395.52" viewBox="-0.15 -35.2 808.87 45.1" height="22.05306100950988" data-palette-color="#31c48d"><path d="M11-23.2Q13.15-22.8 15.2-21.95L15.2-21.95 14.15-18.55 13.55-18.35Q11.6-20.55 9.55-20.55L9.55-20.55Q8.05-20.55 6.98-19.48 5.9-18.4 5.9-17.05L5.9-17.05Q5.9-15.95 6.65-15.15 7.4-14.35 9.05-13.15L9.05-13.15Q11.2-11.6 12.33-10.28 13.45-8.95 13.45-6.8L13.45-6.8Q13.45-4.8 12.35-3.15 11.25-1.5 9.3-0.55 7.35 0.4 4.85 0.4L4.85 0.4Q2.25 0.05-0.15-1.3L-0.15-1.3 0.8-4.85 1.35-5.1Q2.35-3.7 3.6-2.98 4.85-2.25 6.15-2.25L6.15-2.25Q7.85-2.25 8.95-3.35 10.05-4.45 10.05-5.85L10.05-5.85Q10.05-7.15 9.22-8.05 8.4-8.95 6.7-10.1L6.7-10.1Q4.6-11.6 3.5-12.88 2.4-14.15 2.4-16.2L2.4-16.2Q2.4-18.25 3.58-19.85 4.75-21.45 6.73-22.35 8.7-23.25 11-23.2L11-23.2ZM50.33-23.3L50.78-23 48.33-5.45 48.08-0.15 44.28 0.2 45.73-10.05 45.23-10.05Q41.58-3.65 37.38 0.35L37.38 0.35 36.68 0.35Q32.88-1.8 32.88-7.5L32.88-7.5Q32.88-11.1 34.23-14.5 35.58-17.9 38.2-20.28 40.83-22.65 44.58-23.25L44.58-23.25 44.83-23.25 47.93-22.1 50.33-23.3ZM37.73-3.75Q38.33-3.75 39.8-5.4 41.28-7.05 43.15-10.2 45.03-13.35 46.83-17.6L46.83-17.6 46.88-17.9 46.93-19.1 43.83-20.2Q41.53-20.2 39.8-18.63 38.08-17.05 37.18-14.38 36.28-11.7 36.28-8.45L36.28-8.45Q36.28-5.95 36.73-4.85 37.18-3.75 37.73-3.75L37.73-3.75ZM86.35-23.15Q87.5-21.15 87.5-19.15L87.5-19.15Q87.5-16.5 85.3-12.75L85.3-12.75 77.8 0 73.7 0 71.2-22.8 74.95-23.15 75.1-19.15 76.35-4 76.7-4 82.3-13.8Q83.95-16.65 83.95-18.5L83.95-18.5Q83.95-20.1 82.75-21.85L82.75-21.85 82.85-22.35 86.35-23.15ZM117.13-7L117.73-6.95 118.93-5.4Q117.33-2.95 115.43-1.55 113.53-0.15 111.13 0.35L111.13 0.35 110.53 0.35Q107.33-0.05 105.85-2 104.38-3.95 104.38-7.8L104.38-7.8Q104.38-12.2 105.8-15.7 107.23-19.2 109.7-21.2 112.18-23.2 115.38-23.3L115.38-23.3 115.78-23.25Q117.93-23 119.05-21.85 120.18-20.7 120.18-18.8L120.18-18.8Q120.18-15.8 117.08-13.28 113.98-10.75 107.88-8.85L107.88-8.85Q107.88-5.7 108.7-4.25 109.53-2.8 111.28-2.8L111.28-2.8Q112.78-2.8 114.15-3.8 115.53-4.8 117.13-7L117.13-7ZM114.58-20.6Q112.03-20.6 110.25-18.13 108.48-15.65 108.03-11.5L108.03-11.5Q112.33-12.9 114.55-14.68 116.78-16.45 116.78-18.55L116.78-18.55Q116.78-20.6 114.58-20.6L114.58-20.6ZM178.48-23.15Q179.68-20.95 179.68-19.1L179.68-19.1Q179.68-16.25 177.68-12.7L177.68-12.7 170.58-0.15Q167.58 5.15 165.05 7.45 162.53 9.75 159.48 9.75L159.48 9.75Q157.83 9.75 155.73 9.05L155.73 9.05 155.83 5.85 156.28 5.55Q157.98 6 159.43 6L159.43 6Q161.73 6 163.48 4.67 165.23 3.35 167.08 0.25L167.08 0.25 162.53-22.75 166.23-23.15 166.78-19.15 169.18-4.45 169.68-4.45 174.58-13.45Q176.23-16.3 176.23-18.85L176.23-18.85Q176.23-20.55 175.08-22.15L175.08-22.15 175.23-22.6 178.48-23.15ZM207.8-23.3L208.2-23.3Q210.95-22.85 212.33-21 213.7-19.15 213.7-15.7L213.7-15.7Q213.7-11.1 212.4-7.55 211.1-4 208.63-1.93 206.15 0.15 202.75 0.45L202.75 0.45 202.3 0.4Q199.45-0.15 198.08-2 196.7-3.85 196.7-7.45L196.7-7.45Q196.7-11.95 198.05-15.48 199.4-19 201.93-21.05 204.45-23.1 207.8-23.3L207.8-23.3ZM207.15-20.25Q203.75-20.25 201.95-16.8 200.15-13.35 200.15-7.5L200.15-7.5Q200.15-4.9 200.85-3.73 201.55-2.55 203.2-2.55L203.2-2.55Q206.55-2.55 208.35-6.05 210.15-9.55 210.15-15.45L210.15-15.45Q210.15-18 209.45-19.13 208.75-20.25 207.15-20.25L207.15-20.25ZM248.23-22.8L251.93-23.15 249.43-5.45 249.23-0.15 245.43 0.2 246.98-11 246.63-11Q244.18-6.8 242.15-4.15 240.13-1.5 237.93 0.2L237.93 0.2 237.38 0.2Q235.63-0.2 234.55-1.3 233.48-2.4 233.53-4.1L233.53-4.1 233.58-4.75 235.63-17.65 236.03-22.9 239.73-23.2 237.08-6.45 236.98-5.4Q236.93-4.65 237.23-4.28 237.53-3.9 238.03-3.9L238.03-3.9Q239.48-3.9 242.13-7.55 244.78-11.2 247.98-17.95L247.98-17.95 248.23-22.8ZM285.91-23.1L287.11-23 286.36-18 286.06-17.85 285.61-17.9Q283.21-17.55 281.01-14.63 278.81-11.7 275.91-4.5L275.91-4.5 275.71-0.15 271.91 0.2 274.51-17.95 274.76-22.8 278.41-23.15 276.91-12.15 277.31-12.15Q279.11-15.8 281.18-18.48 283.26-21.15 285.91-23.1L285.91-23.1ZM345.21-34.5L345.36-34.15 344.36-31.45 343.81-31.35Q342.91-31.85 341.81-32.15 340.71-32.45 339.81-32.45L339.81-32.45Q337.81-32.45 336.46-31 335.11-29.55 334.76-26.85L334.76-26.85 334.16-22.5 339.56-22.5 339.86-22.1 339.51-20 333.86-20 332.51-9.95 330.96 0.7 330.76 6.05 326.96 6.35 329.16-9.5 330.61-20 327.16-20 326.91-20.25 327.21-22.5 330.96-22.5 331.46-25.9Q332.06-30.5 334.28-32.85 336.51-35.2 340.66-35.2L340.66-35.2 345.21-34.5ZM371.68-23.3L372.13-23 369.68-5.45 369.43-0.15 365.63 0.2 367.08-10.05 366.58-10.05Q362.93-3.65 358.73 0.35L358.73 0.35 358.03 0.35Q354.23-1.8 354.23-7.5L354.23-7.5Q354.23-11.1 355.58-14.5 356.93-17.9 359.56-20.28 362.18-22.65 365.93-23.25L365.93-23.25 366.18-23.25 369.28-22.1 371.68-23.3ZM359.08-3.75Q359.68-3.75 361.16-5.4 362.63-7.05 364.51-10.2 366.38-13.35 368.18-17.6L368.18-17.6 368.23-17.9 368.28-19.1 365.18-20.2Q362.88-20.2 361.16-18.63 359.43-17.05 358.53-14.38 357.63-11.7 357.63-8.45L357.63-8.45Q357.63-5.95 358.08-4.85 358.53-3.75 359.08-3.75L359.08-3.75ZM406.06-23.1L407.26-23 406.51-18 406.21-17.85 405.76-17.9Q403.36-17.55 401.16-14.63 398.96-11.7 396.06-4.5L396.06-4.5 395.86-0.15 392.06 0.2 394.66-17.95 394.91-22.8 398.56-23.15 397.06-12.15 397.46-12.15Q399.26-15.8 401.33-18.48 403.41-21.15 406.06-23.1L406.06-23.1ZM450.88-23.25Q452.63-22.85 453.71-21.73 454.78-20.6 454.73-18.9L454.73-18.9 454.68-18.25 452.63-5.4 452.33-0.15 448.48 0.2 451.18-16.9 451.23-17.55Q451.28-18.25 451.01-18.68 450.73-19.1 450.23-19.1L450.23-19.1Q448.78-19.1 446.08-15.35 443.38-11.6 440.08-4.7L440.08-4.7 439.83-0.15 435.98 0.2 438.73-16.9 438.78-17.55Q438.78-19.1 437.73-19.1L437.73-19.1Q436.28-19.1 433.66-15.45 431.03-11.8 427.78-5.05L427.78-5.05 427.53-0.15 423.73 0.2 426.33-17.95 426.58-22.8 430.28-23.15 428.68-11.9 429.13-11.9Q431.68-16.25 433.68-18.93 435.68-21.6 437.83-23.25L437.83-23.25 438.38-23.25Q440.13-22.85 441.21-21.73 442.28-20.6 442.23-18.9L442.23-18.9 442.18-18.25 441.18-11.9 441.63-11.9Q444.08-16.2 446.13-18.88 448.18-21.55 450.33-23.25L450.33-23.25 450.88-23.25ZM481.46-23.15L478.96-5.45 478.76-0.15 474.96 0.2 477.56-17.95 477.76-22.8 481.46-23.15ZM480.61-32.95Q481.56-32.95 482.13-32.4 482.71-31.85 482.71-30.85L482.71-30.85Q482.71-29.8 482.11-29.15 481.51-28.5 480.51-28.5L480.51-28.5Q479.51-28.5 478.93-29.1 478.36-29.7 478.36-30.7L478.36-30.7Q478.36-31.7 478.96-32.33 479.56-32.95 480.61-32.95L480.61-32.95ZM515.88-23.25Q517.63-22.85 518.71-21.73 519.78-20.6 519.73-18.9L519.73-18.9 519.68-18.25 517.63-5.4 517.33-0.15 513.48 0.2 516.23-16.9 516.28-17.55Q516.28-19.1 515.23-19.1L515.23-19.1Q513.78-19.1 511.16-15.45 508.53-11.8 505.28-5.05L505.28-5.05 505.03-0.15 501.23 0.2 503.83-17.95 504.08-22.8 507.78-23.15 506.18-11.9 506.63-11.9Q509.18-16.25 511.18-18.93 513.18-21.6 515.33-23.25L515.33-23.25 515.88-23.25ZM556.91-23.3L557.41-23 554.96-5.65 554.56-1.9Q554.06 1.75 552.41 4.42 550.76 7.1 548.29 8.5 545.81 9.9 542.96 9.9L542.96 9.9Q539.76 9.9 537.66 8.08 535.56 6.25 534.96 2.9L534.96 2.9 535.11 2.5 542.16-1.9 542.21-2.35Q541.16-3.3 540.66-4.73 540.16-6.15 540.16-8.3L540.16-8.3Q540.16-11.9 541.44-15.1 542.71-18.3 545.21-20.48 547.71-22.65 551.21-23.2L551.21-23.2 551.46-23.2 554.56-22.1 556.91-23.3ZM550.51-20.2Q547.21-20.2 545.36-17.15 543.51-14.1 543.51-9.55L543.51-9.55Q543.51-7.1 543.99-5.9 544.46-4.7 544.91-4.7L544.91-4.7Q545.41-4.7 546.74-6.25 548.06-7.8 549.84-10.68 551.61-13.55 553.36-17.3L553.36-17.3 553.46-17.95 553.56-19.1 550.51-20.2ZM543.76 7.05Q546.61 7.05 548.59 5 550.56 2.95 551.11-0.9L551.11-0.9 552.41-10.5 551.91-10.5Q548.36-4.25 544.51-1.2L544.51-1.2 539.41 2.6Q538.96 3 538.96 3.45L538.96 3.45Q539.01 4.8 540.31 5.93 541.61 7.05 543.76 7.05L543.76 7.05ZM614.06-23.1L615.26-23 614.51-18 614.21-17.85 613.76-17.9Q611.36-17.55 609.16-14.63 606.96-11.7 604.06-4.5L604.06-4.5 603.86-0.15 600.06 0.2 602.66-17.95 602.91-22.8 606.56-23.15 605.06-12.15 605.46-12.15Q607.26-15.8 609.34-18.48 611.41-21.15 614.06-23.1L614.06-23.1ZM643.94-7L644.54-6.95 645.74-5.4Q644.14-2.95 642.24-1.55 640.34-0.15 637.94 0.35L637.94 0.35 637.34 0.35Q634.14-0.05 632.66-2 631.19-3.95 631.19-7.8L631.19-7.8Q631.19-12.2 632.61-15.7 634.04-19.2 636.51-21.2 638.99-23.2 642.19-23.3L642.19-23.3 642.59-23.25Q644.74-23 645.86-21.85 646.99-20.7 646.99-18.8L646.99-18.8Q646.99-15.8 643.89-13.28 640.79-10.75 634.69-8.85L634.69-8.85Q634.69-5.7 635.51-4.25 636.34-2.8 638.09-2.8L638.09-2.8Q639.59-2.8 640.96-3.8 642.34-4.8 643.94-7L643.94-7ZM641.39-20.6Q638.84-20.6 637.06-18.13 635.29-15.65 634.84-11.5L634.84-11.5Q639.14-12.9 641.36-14.68 643.59-16.45 643.59-18.55L643.59-18.55Q643.59-20.6 641.39-20.6L641.39-20.6ZM674.71-23.2Q676.86-22.8 678.91-21.95L678.91-21.95 677.86-18.55 677.26-18.35Q675.31-20.55 673.26-20.55L673.26-20.55Q671.76-20.55 670.69-19.48 669.61-18.4 669.61-17.05L669.61-17.05Q669.61-15.95 670.36-15.15 671.11-14.35 672.76-13.15L672.76-13.15Q674.91-11.6 676.04-10.28 677.16-8.95 677.16-6.8L677.16-6.8Q677.16-4.8 676.06-3.15 674.96-1.5 673.01-0.55 671.06 0.4 668.56 0.4L668.56 0.4Q665.96 0.05 663.56-1.3L663.56-1.3 664.51-4.85 665.06-5.1Q666.06-3.7 667.31-2.98 668.56-2.25 669.86-2.25L669.86-2.25Q671.56-2.25 672.66-3.35 673.76-4.45 673.76-5.85L673.76-5.85Q673.76-7.15 672.94-8.05 672.11-8.95 670.41-10.1L670.41-10.1Q668.31-11.6 667.21-12.88 666.11-14.15 666.11-16.2L666.11-16.2Q666.11-18.25 667.29-19.85 668.46-21.45 670.44-22.35 672.41-23.25 674.71-23.2L674.71-23.2ZM712.34-22.8L716.04-23.15 713.54-5.45 713.34-0.15 709.54 0.2 711.09-11 710.74-11Q708.29-6.8 706.26-4.15 704.24-1.5 702.04 0.2L702.04 0.2 701.49 0.2Q699.74-0.2 698.66-1.3 697.59-2.4 697.64-4.1L697.64-4.1 697.69-4.75 699.74-17.65 700.14-22.9 703.84-23.2 701.19-6.45 701.09-5.4Q701.04-4.65 701.34-4.28 701.64-3.9 702.14-3.9L702.14-3.9Q703.59-3.9 706.24-7.55 708.89-11.2 712.09-17.95L712.09-17.95 712.34-22.8ZM744.86-35.2L740.71-5.45 740.46-0.15 736.71 0.2 740.96-30 741.11-34.85 744.86-35.2ZM771.19-20L768.84-5.55 768.74-4.75Q768.74-4 769.09-3.55 769.44-3.1 770.09-3.1L770.09-3.1Q771.89-3.1 774.44-7.1L774.44-7.1 774.89-7.1 775.94-5.75Q774.19-2.85 772.79-1.5 771.39-0.15 769.64 0.35L769.64 0.35Q767.64 0.35 766.51-0.75 765.39-1.85 765.39-3.85L765.39-3.85 765.49-5.05 767.64-17.95 767.89-20 764.54-20 764.29-20.25 764.54-22.5 768.24-22.5 768.94-28.05 772.39-29.65 772.69-29.35 771.59-22.5 777.69-22.5 777.99-22.1 777.74-20 771.19-20ZM804.52-23.2Q806.67-22.8 808.72-21.95L808.72-21.95 807.67-18.55 807.07-18.35Q805.12-20.55 803.07-20.55L803.07-20.55Q801.57-20.55 800.49-19.48 799.42-18.4 799.42-17.05L799.42-17.05Q799.42-15.95 800.17-15.15 800.92-14.35 802.57-13.15L802.57-13.15Q804.72-11.6 805.84-10.28 806.97-8.95 806.97-6.8L806.97-6.8Q806.97-4.8 805.87-3.15 804.77-1.5 802.82-0.55 800.87 0.4 798.37 0.4L798.37 0.4Q795.77 0.05 793.37-1.3L793.37-1.3 794.32-4.85 794.87-5.1Q795.87-3.7 797.12-2.98 798.37-2.25 799.67-2.25L799.67-2.25Q801.37-2.25 802.47-3.35 803.57-4.45 803.57-5.85L803.57-5.85Q803.57-7.15 802.74-8.05 801.92-8.95 800.22-10.1L800.22-10.1Q798.12-11.6 797.02-12.88 795.92-14.15 795.92-16.2L795.92-16.2Q795.92-18.25 797.09-19.85 798.27-21.45 800.24-22.35 802.22-23.25 804.52-23.2L804.52-23.2Z" opacity="1" transform="matrix(1,0,0,1,0,0)" fill="#000000" class="slogan-text-1" data-fill-palette-color="secondary" id="text-1"></path></svg></g></svg></g></svg></g></svg></g><g transform="matrix(1,0,0,1,73.78461835118917,0)"><svg viewBox="0 0 247.95076329762165 134.4105362809487" height="134.4105362809487" width="247.95076329762165"><g><svg xmlns="http://www.w3.org/2000/svg" xmlns:xlink="http://www.w3.org/1999/xlink" version="1.1" x="0" y="0" viewBox="4.247000000000028 43.14699999999999 91.504 49.60300000000001" enable-background="new 0 0 100 100" xml:space="preserve" height="134.4105362809487" width="247.95076329762165" class="icon-icon-0" data-fill-palette-color="accent" id="icon-0"><path d="M66.729 91.031c2.283 0 4.568 0 6.852 0 0.313 0 0.625 0 0.938 0 0.58 0 1.16 0 1.74 0-0.018-0.115-0.035-0.233-0.055-0.355-0.125-0.812-0.258-1.757-0.402-2.852 1.385 0 2.768 0 4.15 0 0-0.287 0-0.573 0-0.859-1.42 0-2.84 0-4.262 0-0.324-2.543-0.703-5.814-1.176-9.997-0.125-1.102-0.229-2.112-0.311-3.03 0.854 0 1.709 0 2.564 0 0-0.286 0-0.572 0-0.858-0.879 0-1.76 0-2.639 0-0.039-0.484-0.072-0.94-0.1-1.366 1.637 0 3.275 0 4.912 0 0-0.286 0-0.572 0-0.858-1.652 0-3.305 0-4.959 0-0.037-0.851-0.045-1.558-0.02-2.122 0.715-3.07 2.553-4.24 6.264-4.24s5.549 1.17 6.264 4.24c0.059 1.3-0.053 3.359-0.332 6.179-1.539 0-3.078 0-4.619 0 0 0.287 0 0.572 0 0.858 1.512 0 3.021 0 4.533 0-0.025 0.23-0.051 0.463-0.076 0.701-0.572 0-1.146 0-1.719 0 0 0.286 0 0.573 0 0.859 0.541 0 1.082 0 1.623 0-0.725 6.396-1.229 10.618-1.648 13.346-0.02 0.122-0.039 0.24-0.057 0.355 3.852 0 7.705 0 11.557 0 0 0.572 0 1.145 0 1.718-30.502 0-61.003 0-91.504 0 0-0.573 0-1.146 0-1.718 1.341 0 2.682 0 4.023 0 0-2.951 0-5.902 0-8.854 1.878-8.047 3.757-16.096 5.635-24.145 7.579-3.688 15.156-7.378 22.735-11.065 3.64 1.771 7.277 3.542 10.916 5.313-0.192 0.195-0.361 0.417-0.499 0.653-0.255 0.438-0.403 0.933-0.483 1.436-0.056 0.354-0.077 0.714-0.081 1.072-0.009 0.658 0.034 1.314 0.103 1.97-0.177-0.114-0.364-0.212-0.56-0.289-0.412-0.163-0.861-0.237-1.302-0.203-0.821 0.063-1.61 0.504-2.058 1.19-0.271 0.418-0.416 0.93-0.412 1.43 0.004 0.539 0.183 1.065 0.451 1.534 0.272 0.084 0.543 0.168 0.815 0.252 0.339 0.03 0.679 0.062 1.019 0.093 0.002 0.001 0.176 0.2 0.488 0.649 0.21 0.304 0.486 0.719 0.851 1.272-0.996 0.354-1.892 0.919-2.58 1.698-0.807 0.91-1.308 2.051-1.605 3.333-0.013 0.051-0.024 0.103-0.036 0.153-0.003 0.054-0.006 0.106-0.007 0.159-0.029 0.642-0.021 1.392 0.02 2.283 0.018 0.291 0.032 0.582 0.048 0.873 0 0.008 0 0.015 0.001 0.021-1.695 0-3.392 0-5.088 0-3.719 0-7.437 0-11.154 0 0 6.391 0 12.779 0 19.169 6.146 0 12.295 0 18.441 0 0.701 0 1.403 0 2.104 0-0.019-0.115-0.037-0.233-0.056-0.355-0.126-0.812-0.259-1.757-0.401-2.852 1.383 0 2.767 0 4.149 0 0-0.287 0-0.573 0-0.859-1.42 0-2.841 0-4.262 0-0.324-2.543-0.703-5.814-1.176-9.997-0.125-1.102-0.229-2.112-0.312-3.03 0.854 0 1.71 0 2.565 0 0-0.286 0-0.572 0-0.858-0.88 0-1.759 0-2.638 0-0.04-0.484-0.073-0.94-0.101-1.366 1.637 0 3.275 0 4.912 0 0-0.286 0-0.572 0-0.858-1.652 0-3.305 0-4.959 0-0.038-0.851-0.045-1.558-0.019-2.122 0.715-3.07 2.553-4.24 6.263-4.24 3.711 0 5.549 1.17 6.264 4.24 0.059 1.3-0.053 3.359-0.332 6.179-1.539 0-3.08 0-4.619 0 0 0.287 0 0.572 0 0.858 1.512 0 3.021 0 4.531 0-0.023 0.23-0.049 0.463-0.074 0.701-0.572 0-1.146 0-1.719 0 0 0.286 0 0.573 0 0.859 0.541 0 1.082 0 1.621 0-0.723 6.396-1.227 10.618-1.648 13.346-0.018 0.122-0.037 0.24-0.055 0.355 0.461 0 0.922 0 1.383 0 0.004-0.022 0.008-0.044 0.012-0.064 0.43-2.79 0.932-7.014 1.656-13.417 0.033-0.287 0.064-0.574 0.098-0.861 0.025-0.241 0.051-0.479 0.076-0.713 0.029-0.288 0.059-0.577 0.088-0.865 0.283-2.858 0.404-4.948 0.34-6.426-0.002-0.053-0.006-0.105-0.008-0.159-0.012-0.051-0.023-0.103-0.035-0.153-0.283-1.208-0.742-2.289-1.471-3.175-0.639-0.773-1.475-1.359-2.41-1.741 0.383-0.582 0.67-1.015 0.887-1.326 0.309-0.447 0.482-0.645 0.484-0.646 0.34-0.03 0.68-0.062 1.02-0.093 0.271-0.083 0.543-0.167 0.814-0.251 0.234-0.409 0.402-0.864 0.441-1.333 0.037-0.441-0.039-0.896-0.223-1.301-0.117-0.253-0.275-0.486-0.467-0.688-0.246-0.259-0.549-0.468-0.877-0.609-0.486-0.211-1.031-0.277-1.555-0.196-0.406 0.063-0.801 0.215-1.15 0.431-0.234 0.146-0.449 0.319-0.648 0.513-0.025-0.028-0.053-0.056-0.078-0.082 0.369-0.441 0.74-0.881 1.111-1.322 0.242-0.287 0.412-0.632 0.508-0.994 0.012-0.048 0.023-0.095 0.033-0.143 1.793 0.873 3.586 1.746 5.379 2.619 1.879 8.048 3.756 16.097 5.635 24.144 0 2.951 0 5.902 0 8.854C65.584 91.031 66.156 91.031 66.729 91.031M19.044 75.728v-3.864h-3.865v3.864H19.044zM19.044 80.452v-3.865h-3.865v3.865H19.044zM23.768 75.728v-3.864h-3.864v3.864H23.768zM23.768 80.452v-3.865h-3.864v3.865H23.768z" fill="#000000" data-fill-palette-color="accent"></path><path d="M60.863 56.847c-2.367-1.152-4.734-2.305-7.104-3.457-0.033-0.082-0.07-0.162-0.111-0.241-0.201-0.398-0.475-0.763-0.809-1.061-0.361-0.322-0.791-0.565-1.25-0.712-0.414-0.132-0.848-0.188-1.284-0.181-0.288 0.005-0.577 0.035-0.857 0.096-4.271-2.078-8.539-4.156-12.809-6.234-8.075 3.93-16.148 7.86-24.223 11.789-1.955 8.379-3.91 16.756-5.865 25.134-0.573-0.065-1.145-0.132-1.717-0.196 2.031-8.707 4.063-17.415 6.095-26.123 8.571-4.172 17.141-8.343 25.71-12.514 8.57 4.171 17.141 8.343 25.709 12.514 2.031 8.708 4.064 17.416 6.098 26.123-0.574 0.064-1.148 0.131-1.721 0.196C64.771 73.602 62.818 65.225 60.863 56.847" fill="#000000" data-fill-palette-color="accent"></path><path d="M43.298 86.413c-5.425 0-10.851 0-16.275 0 0-0.286 0-0.573 0-0.859 5.39 0 10.779 0 16.171 0C43.228 85.849 43.264 86.135 43.298 86.413" fill="#000000" data-fill-palette-color="accent"></path><path d="M43.656 89.151c-5.545 0-11.09 0-16.634 0 0-0.286 0-0.572 0-0.858 5.506 0 11.012 0 16.518 0C43.579 88.59 43.617 88.876 43.656 89.151" fill="#000000" data-fill-palette-color="accent"></path><path d="M42.966 83.675c-5.313 0-10.629 0-15.943 0 0-0.286 0-0.573 0-0.859 5.28 0 10.562 0 15.842 0C42.9 83.108 42.933 83.395 42.966 83.675" fill="#000000" data-fill-palette-color="accent"></path><path d="M42.333 78.198c-5.104 0-10.207 0-15.312 0 0-0.287 0-0.573 0-0.859 5.071 0 10.144 0 15.214 0C42.269 77.63 42.302 77.916 42.333 78.198" fill="#000000" data-fill-palette-color="accent"></path><path d="M42.034 75.46c-5.004 0-10.007 0-15.012 0 0-0.287 0-0.573 0-0.859 4.976 0 9.951 0 14.927 0C41.975 74.879 42.003 75.166 42.034 75.46" fill="#000000" data-fill-palette-color="accent"></path><path d="M42.647 80.937c-5.208 0-10.417 0-15.624 0 0-0.287 0-0.572 0-0.858 5.176 0 10.351 0 15.525 0C42.583 80.37 42.616 80.656 42.647 80.937" fill="#000000" data-fill-palette-color="accent"></path><path d="M47.931 63.33c-1.854-2.852-2.095-3.151-2.483-3.329-0.379-0.174-0.903-0.231-1.22 0.257-0.321-0.563-0.25-0.919-0.088-1.168s0.412-0.39 0.742-0.415c0.33-0.024 0.74 0.069 1.188 0.53 0.486 0.503 1.019 1.444 2.508 4.046C48.364 63.277 48.146 63.304 47.931 63.33" fill="#000000" data-fill-palette-color="accent"></path><path d="M51.063 63.223c1.506-2.631 2.039-3.578 2.529-4.084 0.449-0.462 0.857-0.555 1.188-0.53s0.582 0.166 0.742 0.414c0.162 0.249 0.234 0.605-0.088 1.169-0.316-0.487-0.84-0.432-1.219-0.258-0.391 0.179-0.631 0.48-2.496 3.35C51.5 63.263 51.281 63.243 51.063 63.223" fill="#000000" data-fill-palette-color="accent"></path><path d="M82.295 63.33c-0.215-0.026-0.43-0.053-0.646-0.079 1.488-2.602 2.021-3.543 2.51-4.046 0.447-0.461 0.855-0.555 1.186-0.53 0.33 0.025 0.582 0.166 0.744 0.415 0.16 0.249 0.234 0.604-0.09 1.168-0.316-0.488-0.838-0.431-1.219-0.257C84.391 60.179 84.15 60.479 82.295 63.33" fill="#000000" data-fill-palette-color="accent"></path><path d="M79.166 63.223c-0.219 0.021-0.439 0.04-0.658 0.061-1.865-2.869-2.105-3.171-2.494-3.35-0.381-0.174-0.904-0.229-1.221 0.258-0.322-0.563-0.25-0.92-0.088-1.169 0.162-0.248 0.412-0.39 0.742-0.414s0.74 0.068 1.188 0.53C77.125 59.645 77.66 60.592 79.166 63.223" fill="#000000" data-fill-palette-color="accent"></path><path d="M80.004 63.172c-0.92-3.929-1.178-6.007-1.205-7.357-0.025-1.33 0.172-1.954 0.559-2.346s0.961-0.552 1.459-0.581c0.496-0.03 0.918 0.072 1.26 0.292 0.34 0.221 0.598 0.562 0.742 0.988 0.143 0.427 0.17 0.941-0.09 1.25-0.395-0.337-0.781-0.39-1.1-0.295-0.32 0.094-0.572 0.335-0.656 1.535 0 2.17 0 4.339 0 6.509C80.648 63.169 80.326 63.17 80.004 63.172" fill="#000000" data-fill-palette-color="accent"></path><path d="M49.416 63.2c-0.918-3.93-1.177-6.008-1.203-7.357-0.026-1.33 0.172-1.954 0.558-2.346 0.387-0.393 0.959-0.553 1.458-0.581 0.498-0.029 0.918 0.071 1.26 0.292 0.34 0.221 0.6 0.56 0.742 0.987 0.145 0.428 0.17 0.942-0.088 1.249-0.395-0.336-0.783-0.388-1.102-0.294-0.319 0.095-0.571 0.335-0.656 1.535 0 2.169 0 4.339 0 6.509C50.062 63.197 49.74 63.199 49.416 63.2" fill="#000000" data-fill-palette-color="accent"></path></svg></g></svg></g><g></g></svg></g><defs></defs></svg><rect width="395.52" height="208.99670064203136" fill="none" stroke="none" visibility="hidden"></rect></g></svg></g></svg>